# xmcd
#
# Track frame offsets: 
#        150
#        32627
#        55975
#        78325
#        105550
#        131762
#
# Disc length: 2109 seconds
#
# Revision: 0
# Processed by: cddbd v1.5.2PL0 Copyright (c) Steve Scherf et al.
# Submitted via: ExactAudioCopy v0.99pb4
#
DISCID=47083b06
DTITLE=wilton felder - gentle fire
DYEAR=1983
DGENRE=Blues
TTITLE0=gentle fire
TTITLE1=driftin' on a dream
TTITLE2=only for those who care
TTITLE3=i get to feel like you do
TTITLE4=summer nights in rio
TTITLE5=somewhere in my past
EXTD=
EXTT0=
EXTT1=
EXTT2=
EXTT3=
EXTT4=
EXTT5=
PLAYORDER=
